<svg aria-hidden="true" style="position: absolute; width: 0; height: 0; overflow: hidden;" version="1.1" xmlns="http://www.w3.org/2000/svg" xmlns:xlink="http://www.w3.org/1999/xlink">
    <defs>
    <symbol id="icon-books" viewBox="0 0 32 32">
        <path d="M28.9 9.4c0 0 0 0 0 0 0-0.1 0.1-0.2 0.1-0.3 0 0 0 0 0-0.1 0 0 0 0 0-0.1s0-0.2 0-0.3c0 0 0 0 0-0.1s-0.1-0.2-0.1-0.3c0 0 0 0 0 0-0.1-0.1-0.1-0.1-0.2-0.2l-11-7c-0.3-0.2-0.8-0.2-1.1 0l-13 9c0 0-0.1 0.1-0.1 0.1s0 0-0.1 0c-0.1 0.1-0.1 0.2-0.2 0.3 0 0 0 0 0 0.1-0.2 0.3-0.2 0.4-0.2 0.5 0 0 0 0 0 0v12c0 0.3 0.2 0.7 0.5 0.8l11 7c0.2 0.1 0.4 0.2 0.5 0.2 0.2 0 0.4-0.1 0.6-0.2l13-9c0.2-0.2 0.4-0.4 0.4-0.7s-0.1-0.6-0.3-0.8c-0.9-0.9-1.1-2.2-0.5-3.4l0.7-1.5c0-0.1 0.1-0.2 0.1-0.3 0 0 0-0.1 0-0.1s0 0 0 0c0-0.1 0-0.3-0.1-0.4 0 0 0-0.1 0-0.1 0-0.1-0.1-0.2-0.2-0.3 0 0 0 0 0 0-0.9-0.9-1.1-2.2-0.5-3.4l0.7-1.4zM26.6 14.8l-11.6 8-10-6.3v-3.6l9.5 6c0.2 0.1 0.4 0.2 0.5 0.2 0.2 0 0.4-0.1 0.6-0.2l10.3-7.1c-0.1 1 0.1 2 0.7 3zM15 28.8l-10-6.3v-3.6l9.5 6c0.2 0.1 0.4 0.2 0.5 0.2 0.2 0 0.4-0.1 0.6-0.2l10.3-7.1c-0.1 1.1 0.1 2.2 0.7 3.1l-11.6 7.9z"></path>
    </symbol>
    <symbol id="icon-librarian" viewBox="0 0 32 32">
        <path d="M12.254 21.675c-0.151-0.249-0.476-0.328-0.725-0.177-1.335 0.81-2.132 2.225-2.132 3.785v0.372c0 0.291 0.236 0.527 0.527 0.527s0.527-0.236 0.527-0.527v-0.372c0-1.188 0.607-2.265 1.624-2.883 0.249-0.151 0.328-0.476 0.177-0.725z"></path>
        <path d="M25.522 23.775c-0.343-0.945-1.006-1.754-1.869-2.277-0.249-0.151-0.573-0.072-0.725 0.177s-0.072 0.573 0.177 0.725c0.658 0.399 1.163 1.015 1.424 1.735 0.078 0.215 0.28 0.348 0.496 0.348 0.060 0 0.12-0.010 0.18-0.032 0.274-0.099 0.415-0.402 0.316-0.676z"></path>
        <path d="M19.688 18.276c-0.206-0.206-0.54-0.206-0.746 0-0.36 0.361-0.84 0.559-1.35 0.559s-0.989-0.199-1.35-0.559c-0.206-0.206-0.54-0.206-0.746 0s-0.206 0.54 0 0.746c0.56 0.56 1.304 0.868 2.096 0.868s1.536-0.308 2.096-0.868c0.206-0.206 0.206-0.54 0-0.746z"></path>
        <path d="M21.442 22.81c-0.286-0.052-0.561 0.139-0.613 0.425l-0.479 2.649-2.453-1.743c-0.183-0.13-0.428-0.13-0.611 0l-2.453 1.743-0.479-2.649c-0.052-0.287-0.326-0.477-0.613-0.425s-0.477 0.326-0.425 0.613l0.626 3.467c0.032 0.178 0.153 0.327 0.32 0.395 0.064 0.026 0.132 0.039 0.199 0.039 0.108 0 0.215-0.033 0.306-0.098l2.297-1.632v5.021h-6.611v-3.202c0-0.291-0.236-0.527-0.527-0.527s-0.527 0.236-0.527 0.527v3.729c0 0.291 0.236 0.527 0.527 0.527h10.716c0.291 0 0.527-0.236 0.527-0.527s-0.236-0.527-0.527-0.527h-2.522v-5.021l2.297 1.632c0.147 0.105 0.337 0.127 0.505 0.058s0.288-0.217 0.32-0.395l0.626-3.467c0.052-0.287-0.139-0.561-0.425-0.613z"></path>
        <path d="M10.654 20.293h-2.244c-0.663 0-1.257 0.297-1.658 0.764-0.401-0.467-0.996-0.764-1.658-0.764h-4.566c-0.291 0-0.527 0.236-0.527 0.527v9.359c0 0.291 0.236 0.527 0.527 0.527h7.882c0.291 0 0.527-0.236 0.527-0.527s-0.236-0.527-0.527-0.527h-1c0.19-0.358 0.566-0.603 1-0.603 0.291 0 0.527-0.236 0.527-0.527s-0.236-0.527-0.527-0.527c-0.414 0-0.801 0.116-1.131 0.316v-5.831c0-0.624 0.507-1.131 1.131-1.131h2.244c0.291 0 0.527-0.236 0.527-0.527s-0.236-0.527-0.527-0.527zM1.055 29.652v-0.603h4.038c0.433 0 0.81 0.245 1 0.603h-5.038zM6.224 28.31c-0.33-0.2-0.717-0.316-1.131-0.316h-4.038v-6.646h4.038c0.624 0 1.131 0.507 1.131 1.131v5.831z"></path>
        <path d="M4.371 22.197h-2.063c-0.291 0-0.527 0.236-0.527 0.527s0.236 0.527 0.527 0.527h2.063c0.291 0 0.527-0.236 0.527-0.527s-0.236-0.527-0.527-0.527z"></path>
        <path d="M4.371 26.027h-2.063c-0.291 0-0.527 0.236-0.527 0.527s0.236 0.527 0.527 0.527h2.063c0.291 0 0.527-0.236 0.527-0.527s-0.236-0.527-0.527-0.527z"></path>
        <path d="M4.371 24.112h-2.063c-0.291 0-0.527 0.236-0.527 0.527s0.236 0.527 0.527 0.527h2.063c0.291 0 0.527-0.236 0.527-0.527s-0.236-0.527-0.527-0.527z"></path>
        <path d="M31.473 28.398h-0.598v-0.841h0.129c0.291 0 0.527-0.236 0.527-0.527v-1.625c0-0.291-0.236-0.527-0.527-0.527h-8.065c-0.291 0-0.527 0.236-0.527 0.527v1.625c0 0.291 0.236 0.527 0.527 0.527h0.129v0.841h-0.598c-0.291 0-0.527 0.236-0.527 0.527v2.217c0 0.291 0.236 0.527 0.527 0.527h6.025c0.291 0 0.527-0.236 0.527-0.527s-0.236-0.527-0.527-0.527h-5.498v-1.162h7.947v1.162h-0.692c-0.291 0-0.527 0.236-0.527 0.527s0.236 0.527 0.527 0.527h1.219c0.291 0 0.527-0.236 0.527-0.527v-2.217c0-0.291-0.236-0.527-0.527-0.527zM29.82 28.398h-5.697v-0.841h5.697v0.841zM30.476 26.502h-7.010v-0.57h7.010v0.57z"></path>
        <path d="M5.317 0.33c-2.080 0-3.772 1.692-3.772 3.772s1.692 3.772 3.772 3.772c2.080 0 3.772-1.692 3.772-3.772s-1.692-3.772-3.772-3.772zM5.317 6.82c-1.498 0-2.717-1.219-2.717-2.717s1.219-2.717 2.717-2.717 2.717 1.219 2.717 2.717c0 1.498-1.219 2.717-2.717 2.717z"></path>
        <path d="M6.151 3.575h-0.306v-0.882c0-0.291-0.236-0.527-0.527-0.527s-0.527 0.236-0.527 0.527v1.409c0 0.291 0.236 0.527 0.527 0.527h0.833c0.291 0 0.527-0.236 0.527-0.527s-0.236-0.527-0.527-0.527z"></path>
        <path d="M27.932 13.403c-0.748-0.812-1.16-1.84-1.16-2.895v-0.122c0-0.58-0.055-1.163-0.165-1.733-0.588-4.509-4.461-7.906-9.016-7.906-2.269 0-4.441 0.84-6.118 2.366-1.661 1.512-2.7 3.568-2.927 5.793-0.079 0.489-0.119 0.986-0.119 1.48v0.077c0 1.061-0.421 2.099-1.187 2.922-0.581 0.625-0.917 1.451-0.946 2.325-0.064 1.943 1.397 3.574 3.328 3.713 0.088 0.006 0.176 0.009 0.263 0.009 0.28 0 0.554-0.033 0.822-0.096 0.36 0.503 0.801 0.953 1.313 1.325l2.887 2.098c0.803 0.583 1.743 0.875 2.684 0.875s1.881-0.292 2.684-0.875l2.887-2.098c0.512-0.372 0.952-0.821 1.312-1.323 0.365 0.085 0.742 0.113 1.125 0.080 1.64-0.139 2.974-1.368 3.243-2.989 0.183-1.098-0.149-2.202-0.91-3.028zM22.542 19.809l-2.887 2.098c-1.234 0.897-2.893 0.897-4.127 0l-2.887-2.098c-1.368-0.994-2.117-2.658-1.955-4.341l0.151-1.565 1.040 0.56c0.161 1.244 1.226 2.209 2.514 2.209 1.217 0 2.236-0.862 2.48-2.008h0.195c-0 0.005-0.001 0.010-0.001 0.015v1.090h-0.024c-0.291 0-0.527 0.236-0.527 0.527s0.236 0.527 0.527 0.527h1.103c0.291 0 0.527-0.236 0.527-0.527s-0.236-0.527-0.527-0.527h-0.024v-1.090c0-0.005-0.001-0.010-0.001-0.015h0.076c0.243 1.146 1.263 2.008 2.48 2.008 1.264 0 2.314-0.929 2.504-2.14l1.167-0.629 0.151 1.565c0.163 1.683-0.586 3.347-1.955 4.341zM20.674 11.601c-1.217 0-2.236 0.862-2.48 2.008h-1.324c-0.243-1.146-1.263-2.008-2.48-2.008-1.114 0-2.062 0.723-2.402 1.724l-1.042-0.561 0.239-2.477c0.041-0.428 0.124-0.846 0.247-1.252 0.731 0.94 1.872 1.522 3.1 1.522h6.116c1.228 0 2.369-0.582 3.1-1.522 0.123 0.405 0.205 0.824 0.247 1.252l0.239 2.477-1.142 0.615c-0.323-1.029-1.286-1.778-2.42-1.778zM22.155 14.136c0 0.816-0.664 1.48-1.48 1.48s-1.48-0.664-1.48-1.48c0-0.816 0.664-1.48 1.48-1.48s1.48 0.664 1.48 1.48zM15.871 14.136c0 0.816-0.664 1.48-1.48 1.48s-1.48-0.664-1.48-1.48c0-0.001 0-0.001 0-0.002 0.001-0.816 0.665-1.479 1.48-1.479s1.48 0.664 1.48 1.48zM27.801 16.259c-0.187 1.126-1.15 2.014-2.291 2.11-0.159 0.013-0.317 0.012-0.471-0.003 0.424-0.925 0.609-1.958 0.508-2.998l-0.501-5.181c-0.088-0.912-0.338-1.788-0.742-2.603-0.093-0.189-0.291-0.303-0.5-0.292s-0.394 0.146-0.467 0.343c-0.415 1.118-1.495 1.869-2.688 1.869h-6.116c-1.193 0-2.273-0.751-2.688-1.869-0.073-0.197-0.257-0.332-0.467-0.343s-0.407 0.104-0.5 0.292c-0.404 0.815-0.653 1.69-0.742 2.603l-0.501 5.181c-0.101 1.040 0.085 2.073 0.508 2.998-0.147 0.015-0.296 0.018-0.447 0.007-1.362-0.098-2.394-1.251-2.348-2.626 0.020-0.62 0.256-1.203 0.664-1.642 0.947-1.019 1.469-2.312 1.469-3.641v-0.077h-0c0-0.442 0.036-0.888 0.108-1.325 0.002-0.011 0.003-0.022 0.004-0.033 0.198-1.971 1.117-3.795 2.589-5.134 1.482-1.349 3.402-2.091 5.408-2.091 4.032 0 7.459 3.010 7.972 7.002 0.001 0.011 0.003 0.022 0.005 0.033 0.098 0.509 0.148 1.030 0.148 1.549v0.122c0 1.321 0.511 2.603 1.439 3.61 0.539 0.585 0.774 1.365 0.645 2.14z"></path>
        <path d="M19.699 27.923c0 0.291-0.236 0.527-0.527 0.527s-0.527-0.236-0.527-0.527c0-0.291 0.236-0.527 0.527-0.527s0.527 0.236 0.527 0.527z"></path>
        <path d="M21.202 14.136c0 0.291-0.236 0.527-0.527 0.527s-0.527-0.236-0.527-0.527c0-0.291 0.236-0.527 0.527-0.527s0.527 0.236 0.527 0.527z"></path>
        <path d="M14.917 14.137c0 0.291-0.236 0.527-0.527 0.527s-0.527-0.236-0.527-0.527c0-0.291 0.236-0.527 0.527-0.527s0.527 0.236 0.527 0.527z"></path>
    </symbol>
    <symbol id="icon-calendar-times-o" viewBox="0 0 26 28">
<path d="M17.359 21.641l-0.719 0.719c-0.187 0.187-0.5 0.187-0.703 0l-2.938-2.953-2.938 2.953c-0.203 0.187-0.516 0.187-0.703 0l-0.719-0.719c-0.187-0.187-0.187-0.5 0-0.703l2.953-2.938-2.953-2.938c-0.187-0.203-0.187-0.516 0-0.703l0.719-0.719c0.187-0.187 0.5-0.187 0.703 0l2.938 2.938 2.938-2.938c0.203-0.187 0.516-0.187 0.703 0l0.719 0.719c0.187 0.187 0.187 0.5 0 0.703l-2.938 2.938 2.938 2.938c0.187 0.203 0.187 0.516 0 0.703zM2 26h22v-16h-22v16zM8 7v-4.5c0-0.281-0.219-0.5-0.5-0.5h-1c-0.281 0-0.5 0.219-0.5 0.5v4.5c0 0.281 0.219 0.5 0.5 0.5h1c0.281 0 0.5-0.219 0.5-0.5zM20 7v-4.5c0-0.281-0.219-0.5-0.5-0.5h-1c-0.281 0-0.5 0.219-0.5 0.5v4.5c0 0.281 0.219 0.5 0.5 0.5h1c0.281 0 0.5-0.219 0.5-0.5zM26 6v20c0 1.094-0.906 2-2 2h-22c-1.094 0-2-0.906-2-2v-20c0-1.094 0.906-2 2-2h2v-1.5c0-1.375 1.125-2.5 2.5-2.5h1c1.375 0 2.5 1.125 2.5 2.5v1.5h6v-1.5c0-1.375 1.125-2.5 2.5-2.5h1c1.375 0 2.5 1.125 2.5 2.5v1.5h2c1.094 0 2 0.906 2 2z"></path>
</symbol>
<symbol id="icon-calendar-check-o" viewBox="0 0 26 28">
<path d="M20.359 15.062l-8 8c-0.203 0.187-0.516 0.187-0.719 0l-4.5-4.5c-0.187-0.203-0.187-0.516 0-0.703l0.719-0.719c0.187-0.187 0.5-0.187 0.703 0l3.437 3.437 6.937-6.937c0.203-0.187 0.516-0.187 0.703 0l0.719 0.719c0.187 0.187 0.187 0.5 0 0.703zM2 26h22v-16h-22v16zM8 7v-4.5c0-0.281-0.219-0.5-0.5-0.5h-1c-0.281 0-0.5 0.219-0.5 0.5v4.5c0 0.281 0.219 0.5 0.5 0.5h1c0.281 0 0.5-0.219 0.5-0.5zM20 7v-4.5c0-0.281-0.219-0.5-0.5-0.5h-1c-0.281 0-0.5 0.219-0.5 0.5v4.5c0 0.281 0.219 0.5 0.5 0.5h1c0.281 0 0.5-0.219 0.5-0.5zM26 6v20c0 1.094-0.906 2-2 2h-22c-1.094 0-2-0.906-2-2v-20c0-1.094 0.906-2 2-2h2v-1.5c0-1.375 1.125-2.5 2.5-2.5h1c1.375 0 2.5 1.125 2.5 2.5v1.5h6v-1.5c0-1.375 1.125-2.5 2.5-2.5h1c1.375 0 2.5 1.125 2.5 2.5v1.5h2c1.094 0 2 0.906 2 2z"></path>
</symbol>
<symbol id="icon-circle-down" viewBox="0 0 32 32">
<path d="M32 16c0-8.837-7.163-16-16-16s-16 7.163-16 16 7.163 16 16 16 16-7.163 16-16zM3 16c0-7.18 5.82-13 13-13s13 5.82 13 13-5.82 13-13 13-13-5.82-13-13z"></path>
<path d="M9.914 11.086l-2.829 2.829 8.914 8.914 8.914-8.914-2.828-2.828-6.086 6.086z"></path>
</symbol>
<symbol id="icon-circle-up" viewBox="0 0 32 32">
<path d="M0 16c0 8.837 7.163 16 16 16s16-7.163 16-16-7.163-16-16-16-16 7.163-16 16zM29 16c0 7.18-5.82 13-13 13s-13-5.82-13-13 5.82-13 13-13 13 5.82 13 13z"></path>
<path d="M22.086 20.914l2.829-2.829-8.914-8.914-8.914 8.914 2.828 2.828 6.086-6.086z"></path>
</symbol>
<symbol id="icon-location" viewBox="0 0 32 32">
<path d="M16 0c-5.523 0-10 4.477-10 10 0 10 10 22 10 22s10-12 10-22c0-5.523-4.477-10-10-10zM16 16c-3.314 0-6-2.686-6-6s2.686-6 6-6 6 2.686 6 6-2.686 6-6 6z"></path>
</symbol>
<symbol id="icon-email" viewBox="0 0 24 32">
<path d="M20 8h-16c-1.1 0-1.989 0.9-1.989 2l-0.011 12c0 1.1 0.9 2 2 2h16c1.1 0 2-0.9 2-2v-12c0-1.1-0.9-2-2-2zM19.6 12.251l-7.069 4.419c-0.151 0.094-0.334 0.15-0.531 0.15s-0.38-0.056-0.535-0.153l0.004 0.002-7.069-4.419c-0.252-0.15-0.418-0.422-0.418-0.731 0-0.469 0.38-0.849 0.849-0.849 0.174 0 0.337 0.053 0.471 0.143l6.697 4.187 6.7-4.191c0.132-0.088 0.294-0.141 0.468-0.141 0.469 0 0.849 0.38 0.849 0.849 0 0.31-0.166 0.581-0.414 0.729l-0.004 0.002z"></path>
</symbol>
    </defs>
</svg>
