<?xml version="1.0" encoding="iso-8859-1"?>
<!-- Uploaded to: SVG Repo, www.svgrepo.com, Generator: SVG Repo Mixer Tools -->
<svg fill="#000000" height="800px" width="800px" version="1.1" id="Layer_1" xmlns="http://www.w3.org/2000/svg" xmlns:xlink="http://www.w3.org/1999/xlink" 
	 viewBox="0 0 512 512" xml:space="preserve">
<g>
	<g>
		<path d="M196.071,346.799c-2.419-3.985-7.609-5.254-11.594-2.835c-21.356,12.965-34.106,35.603-34.106,60.554v5.957
			c0,4.661,3.779,8.44,8.44,8.44c4.661,0,8.44-3.779,8.44-8.44v-5.957c0-19.004,9.715-36.246,25.986-46.125
			C197.221,355.974,198.489,350.782,196.071,346.799z"/>
	</g>
</g>
<g>
	<g>
		<path d="M408.35,380.402c-5.483-15.121-16.1-28.061-29.898-36.438c-3.987-2.418-9.176-1.15-11.595,2.835
			c-2.418,3.985-1.149,9.176,2.835,11.594c10.522,6.387,18.615,16.247,22.79,27.761c1.243,3.432,4.483,5.566,7.936,5.566
			c0.954,0,1.927-0.163,2.876-0.507C407.675,389.624,409.939,384.784,408.35,380.402z"/>
	</g>
</g>
<g>
	<g>
		<path d="M315.003,292.417c-3.298-3.295-8.641-3.295-11.938,0c-5.768,5.769-13.438,8.946-21.598,8.946
			c-8.159,0-15.829-3.177-21.598-8.946c-3.297-3.296-8.639-3.296-11.935,0s-3.296,8.639,0,11.935
			c8.958,8.958,20.867,13.891,33.534,13.891s24.578-4.933,33.535-13.891C318.299,301.056,318.299,295.712,315.003,292.417z"/>
	</g>
</g>
<g>
	<g>
		<path d="M343.07,364.957c-4.582-0.827-8.978,2.218-9.806,6.805l-7.657,42.391l-39.251-27.885c-2.928-2.08-6.849-2.08-9.777,0
			l-39.25,27.885l-7.657-42.391c-0.828-4.587-5.218-7.634-9.805-6.805c-4.587,0.828-7.634,5.218-6.805,9.805l10.018,55.467
			c0.513,2.843,2.444,5.225,5.118,6.315c1.027,0.419,2.11,0.625,3.187,0.625c1.726,0,3.439-0.53,4.888-1.56l36.754-26.112v80.343
			H167.25v-51.231c0-4.661-3.779-8.44-8.44-8.44c-4.661,0-8.44,3.779-8.44,8.44v59.671c0,4.661,3.779,8.44,8.44,8.44h171.451
			c4.662,0,8.44-3.779,8.44-8.44c0-4.661-3.778-8.44-8.44-8.44h-40.353v-80.343l36.754,26.112c2.354,1.672,5.399,2.024,8.075,0.935
			c2.674-1.09,4.606-3.473,5.119-6.315l10.019-55.467C350.705,370.175,347.657,365.785,343.07,364.957z"/>
	</g>
</g>
<g>
	<g>
		<path d="M170.468,324.687h-35.909c-10.605,0-20.115,4.751-26.535,12.229c-6.419-7.478-15.93-12.229-26.535-12.229H8.44
			c-4.661,0-8.44,3.779-8.44,8.44v123.216v26.535c0,4.661,3.779,8.44,8.44,8.44h126.119c4.661,0,8.44-3.779,8.44-8.44
			c0-4.661-3.779-8.44-8.44-8.44h-15.993c3.038-5.735,9.063-9.655,15.993-9.655c4.661,0,8.44-3.779,8.44-8.44
			c0-4.661-3.779-8.44-8.44-8.44c-6.617,0-12.813,1.848-18.095,5.054v-93.295c0-9.977,8.117-18.095,18.095-18.095h35.909
			c4.661,0,8.44-3.779,8.44-8.44C178.908,328.466,175.129,324.687,170.468,324.687z M16.88,474.438v-9.655h64.611
			c6.93,0,12.955,3.919,15.993,9.655H16.88z M99.586,452.958c-5.282-3.206-11.477-5.054-18.095-5.054H16.88V341.568h64.611
			c9.977,0,18.095,8.117,18.095,18.095V452.958z"/>
	</g>
</g>
<g>
	<g>
		<path d="M69.939,355.148H36.93c-4.661,0-8.44,3.779-8.44,8.44c0,4.661,3.779,8.44,8.44,8.44h33.009c4.661,0,8.44-3.779,8.44-8.44
			C78.379,358.927,74.6,355.148,69.939,355.148z"/>
	</g>
</g>
<g>
	<g>
		<path d="M69.939,416.436H36.93c-4.661,0-8.44,3.779-8.44,8.44c0,4.661,3.779,8.44,8.44,8.44h33.009c4.661,0,8.44-3.779,8.44-8.44
			C78.379,420.215,74.6,416.436,69.939,416.436z"/>
	</g>
</g>
<g>
	<g>
		<path d="M69.939,385.792H36.93c-4.661,0-8.44,3.779-8.44,8.44c0,4.661,3.779,8.44,8.44,8.44h33.009c4.661,0,8.44-3.779,8.44-8.44
			C78.379,389.571,74.6,385.792,69.939,385.792z"/>
	</g>
</g>
<g>
	<g>
		<path d="M503.56,454.363h-9.565v-13.46h2.063c4.662,0,8.44-3.779,8.44-8.44v-25.997c0-4.661-3.778-8.44-8.44-8.44H367.023
			c-4.662,0-8.44,3.779-8.44,8.44v25.997c0,4.661,3.778,8.44,8.44,8.44h2.063v13.46h-9.565c-4.662,0-8.44,3.779-8.44,8.44v35.477
			c0,4.661,3.778,8.44,8.44,8.44h96.402c4.662,0,8.44-3.779,8.44-8.44c0-4.661-3.778-8.44-8.44-8.44H367.96v-18.597h9.565h108.03
			h9.565v18.597h-11.065c-4.662,0-8.44,3.779-8.44,8.44c0,4.661,3.778,8.44,8.44,8.44h19.505c4.662,0,8.44-3.779,8.44-8.44v-35.477
			C512,458.141,508.221,454.363,503.56,454.363z M477.115,454.363h-91.15v-13.46h91.15V454.363z M487.618,424.024h-2.063h-108.03
			h-2.063v-9.117h0h112.155V424.024z"/>
	</g>
</g>
<g>
	<g>
		<path d="M85.08,5.281c-33.281,0-60.358,27.076-60.358,60.358s27.077,60.357,60.358,60.357c33.281,0,60.358-27.077,60.358-60.358
			C145.439,32.357,118.361,5.281,85.08,5.281z M85.08,109.117c-23.974,0-43.479-19.504-43.479-43.478
			c0-23.974,19.505-43.479,43.479-43.479s43.479,19.505,43.479,43.479C128.559,89.613,109.054,109.117,85.08,109.117z"/>
	</g>
</g>
<g>
	<g>
		<path d="M98.412,57.2H93.52V43.094c0-4.661-3.779-8.44-8.44-8.44c-4.661,0-8.44,3.779-8.44,8.44v22.546
			c0,4.661,3.779,8.44,8.44,8.44h13.332c4.661,0,8.44-3.779,8.44-8.44C106.852,60.978,103.073,57.2,98.412,57.2z"/>
	</g>
</g>
<g>
	<g>
		<path d="M446.914,214.455c-11.97-12.985-18.561-29.433-18.561-46.314v-1.947c0-9.282-0.886-18.608-2.632-27.722
			C416.316,66.335,354.346,11.97,281.465,11.97c-36.298,0-71.062,13.444-97.889,37.857c-26.578,24.185-43.204,57.093-46.839,92.689
			c-1.268,7.816-1.911,15.781-1.911,23.678v1.227c0,16.98-6.744,33.587-18.986,46.759c-9.301,10-14.677,23.212-15.141,37.203
			c-1.029,31.093,22.357,57.187,53.247,59.405c1.411,0.099,2.816,0.15,4.214,0.15c4.474,0,8.871-0.521,13.158-1.535
			c5.756,8.054,12.811,15.247,21.012,21.205l46.194,33.568c12.842,9.331,27.892,13.997,42.941,13.997
			c15.049,0,30.099-4.666,42.941-13.997l46.193-33.568c8.189-5.95,15.236-13.131,20.987-21.171
			c5.839,1.363,11.865,1.803,17.999,1.286c26.245-2.224,47.579-21.887,51.883-47.818
			C464.393,245.33,459.088,227.672,446.914,214.455z M360.677,316.949l-46.194,33.568c-19.748,14.35-46.287,14.35-66.036,0
			l-46.194-33.568c-21.895-15.909-33.88-42.522-31.276-69.455l2.419-25.039l16.634,8.958c2.575,19.906,19.622,35.338,40.217,35.338
			c19.474,0,35.782-13.796,39.676-32.127h3.112c-0.002,0.083-0.012,0.164-0.012,0.248v17.442h-0.385c-4.662,0-8.44,3.779-8.44,8.44
			s3.778,8.44,8.44,8.44h17.648c4.662,0,8.44-3.779,8.44-8.44s-3.778-8.44-8.44-8.44h-0.384v-17.442c0-0.083-0.01-0.164-0.012-0.248
			h1.221c3.895,18.33,20.203,32.127,39.677,32.127c20.216,0,37.024-14.866,40.07-34.241l18.675-10.056l2.421,25.042
			C394.558,274.426,382.572,301.041,360.677,316.949z M330.79,185.616c-19.474,0-35.781,13.796-39.677,32.127h-21.187
			c-3.895-18.33-20.203-32.127-39.676-32.127c-17.831,0-32.999,11.568-38.425,27.589l-16.666-8.974l3.831-39.638
			c0.662-6.845,1.984-13.541,3.949-20.027c11.701,15.035,29.952,24.345,49.599,24.345h97.856c19.647,0,37.899-9.31,49.599-24.345
			c1.965,6.487,3.287,13.18,3.95,20.026l3.831,39.637l-18.266,9.836C364.341,197.597,348.939,185.616,330.79,185.616z
			 M354.477,226.183c0,13.06-10.625,23.687-23.687,23.687s-23.687-10.625-23.687-23.687c0-13.061,10.625-23.687,23.687-23.687
			S354.477,213.122,354.477,226.183z M253.936,226.183c0,13.061-10.625,23.687-23.686,23.687c-13.059,0-23.683-10.623-23.687-23.681
			c0-0.011,0.001-0.022,0.001-0.034c0.015-13.048,10.633-23.659,23.686-23.659C243.31,202.496,253.936,213.122,253.936,226.183z
			 M444.819,260.137c-2.99,18.018-18.406,32.219-36.651,33.764c-2.548,0.214-5.065,0.186-7.544-0.056
			c6.78-14.794,9.743-31.333,8.135-47.974l-8.012-82.903c-1.412-14.599-5.406-28.61-11.867-41.646
			c-1.496-3.017-4.649-4.856-8.003-4.68c-3.362,0.177-6.299,2.335-7.471,5.492c-6.638,17.883-23.923,29.9-43.008,29.9H232.54
			c-19.085,0-36.369-12.016-43.008-29.9c-1.173-3.156-4.107-5.315-7.471-5.49c-3.369-0.179-6.508,1.663-8.003,4.68
			c-6.462,13.034-10.454,27.047-11.868,41.647l-8.012,82.902c-1.608,16.638,1.354,33.172,8.129,47.964
			c-2.351,0.24-4.74,0.287-7.159,0.114c-21.798-1.565-38.303-20.017-37.575-42.01c0.327-9.92,4.103-19.247,10.632-26.266
			c15.157-16.307,23.503-36.995,23.503-58.253v-1.228h-0.001c0-7.071,0.583-14.206,1.731-21.206c0.028-0.174,0.052-0.349,0.07-0.524
			c3.163-31.541,17.877-60.717,41.431-82.151c23.711-21.578,54.44-33.461,86.529-33.461c64.505,0,119.339,48.167,127.55,112.039
			c0.022,0.177,0.051,0.352,0.084,0.528c1.575,8.144,2.374,16.48,2.374,24.777v1.947c0,21.132,8.179,41.643,23.027,57.752
			C443.122,235.251,446.882,247.732,444.819,260.137z"/>
	</g>
</g>
<g>
	<g>
		<circle cx="306.737" cy="446.771" r="8.44"/>
	</g>
</g>
<g>
	<g>
		<circle cx="330.797" cy="226.176" r="8.44"/>
	</g>
</g>
<g>
	<g>
		<circle cx="230.239" cy="226.188" r="8.44"/>
	</g>
</g>
</svg>